<svg xmlns="http://www.w3.org/2000/svg" viewBox="0 0 500 500"><g id="freepik--background-complete--inject-2"><rect y="382.4" width="500" height="0.25" style="fill:#ebebeb"></rect><rect x="416.78" y="398.49" width="33.12" height="0.25" style="fill:#ebebeb"></rect><rect x="322.53" y="401.21" width="8.69" height="0.25" style="fill:#ebebeb"></rect><rect x="396.59" y="389.21" width="19.19" height="0.25" style="fill:#ebebeb"></rect><rect x="52.46" y="390.89" width="43.19" height="0.25" style="fill:#ebebeb"></rect><rect x="104.56" y="390.89" width="6.33" height="0.25" style="fill:#ebebeb"></rect><rect x="131.47" y="395.11" width="93.68" height="0.25" style="fill:#ebebeb"></rect><path d="M237,337.8H43.91a5.71,5.71,0,0,1-5.7-5.71V60.66A5.71,5.71,0,0,1,43.91,55H237a5.71,5.71,0,0,1,5.71,5.71V332.09A5.71,5.71,0,0,1,237,337.8ZM43.91,55.2a5.46,5.46,0,0,0-5.45,5.46V332.09a5.46,5.46,0,0,0,5.45,5.46H237a5.47,5.47,0,0,0,5.46-5.46V60.66A5.47,5.47,0,0,0,237,55.2Z" style="fill:#ebebeb"></path><path d="M453.31,337.8H260.21a5.72,5.72,0,0,1-5.71-5.71V60.66A5.72,5.72,0,0,1,260.21,55h193.1A5.71,5.71,0,0,1,459,60.66V332.09A5.71,5.71,0,0,1,453.31,337.8ZM260.21,55.2a5.47,5.47,0,0,0-5.46,5.46V332.09a5.47,5.47,0,0,0,5.46,5.46h193.1a5.47,5.47,0,0,0,5.46-5.46V60.66a5.47,5.47,0,0,0-5.46-5.46Z" style="fill:#ebebeb"></path><rect x="92.75" y="88.35" width="120.22" height="154.71" transform="translate(318.56 12.85) rotate(90)" style="fill:#e0e0e0"></rect><rect x="77.65" y="107.74" width="150.42" height="115.93" transform="translate(305.71 331.4) rotate(180)" style="fill:#ebebeb"></rect><rect x="149.83" y="128.68" width="1" height="16.17" style="fill:#e0e0e0"></rect><polygon points="114.07 196.89 113.07 196.89 113.07 144.34 182.31 144.34 182.31 174.7 181.31 174.7 181.31 145.34 114.07 145.34 114.07 196.89" style="fill:#e0e0e0"></polygon><polygon points="202.16 191.14 201.16 191.14 201.16 175.2 164.65 175.2 164.65 190.59 163.65 190.59 163.65 174.2 202.16 174.2 202.16 191.14" style="fill:#e0e0e0"></polygon><rect x="133.08" y="122.74" width="34.51" height="11.88" style="fill:#f5f5f5"></rect><rect x="165.87" y="151.24" width="32.89" height="12.91" style="fill:#f5f5f5"></rect><rect x="152.86" y="183.93" width="22.59" height="13.31" style="fill:#f5f5f5"></rect><rect x="189.57" y="186.09" width="24.19" height="10.11" style="fill:#f5f5f5"></rect><rect x="97.7" y="153.97" width="37.37" height="17.24" style="fill:#f5f5f5"></rect><rect x="101.64" y="190.59" width="23.86" height="12.6" style="fill:#f5f5f5"></rect><rect x="146.69" y="141.62" width="7.29" height="7.29" transform="translate(146.75 -63.75) rotate(45)" style="fill:#f5f5f5"></rect><rect x="178.16" y="171.06" width="7.29" height="7.29" transform="translate(176.78 -77.39) rotate(45)" style="fill:#f5f5f5"></rect><rect x="293.22" y="125.84" width="95.36" height="4.9" style="fill:#e0e0e0"></rect><rect x="297.61" y="107.78" width="4.2" height="18.06" style="fill:#ebebeb"></rect><rect x="317.92" y="107.78" width="4.2" height="18.06" style="fill:#ebebeb"></rect><rect x="342.55" y="107.56" width="4.2" height="18.06" transform="translate(-14.79 60.23) rotate(-9.78)" style="fill:#ebebeb"></rect><rect x="302.82" y="110.16" width="4.2" height="15.68" style="fill:#ebebeb"></rect><rect x="312.47" y="110.16" width="4.2" height="15.68" style="fill:#ebebeb"></rect><rect x="336.85" y="110.16" width="4.2" height="15.68" style="fill:#ebebeb"></rect><rect x="325.19" y="109.89" width="4.2" height="15.68" transform="translate(-17.74 73.78) rotate(-12.53)" style="fill:#ebebeb"></rect><rect x="308.55" y="106.88" width="2.1" height="18.96" style="fill:#ebebeb"></rect><rect x="333.54" y="106.88" width="2.1" height="18.96" style="fill:#ebebeb"></rect><rect x="358.96" y="111.55" width="20.47" height="14.13" style="fill:#ebebeb"></rect><rect x="293.22" y="162.42" width="95.36" height="4.9" transform="translate(681.8 329.74) rotate(180)" style="fill:#e0e0e0"></rect><rect x="379.99" y="144.36" width="4.2" height="18.06" transform="translate(764.18 306.78) rotate(180)" style="fill:#ebebeb"></rect><rect x="359.68" y="144.36" width="4.2" height="18.06" transform="translate(723.55 306.78) rotate(180)" style="fill:#ebebeb"></rect><rect x="335.05" y="144.13" width="4.2" height="18.06" transform="translate(643.39 361.36) rotate(-170.22)" style="fill:#ebebeb"></rect><rect x="374.78" y="146.74" width="4.2" height="15.68" transform="translate(753.77 309.16) rotate(180)" style="fill:#ebebeb"></rect><rect x="365.13" y="146.74" width="4.2" height="15.68" transform="translate(734.46 309.16) rotate(180)" style="fill:#ebebeb"></rect><rect x="340.75" y="146.74" width="4.2" height="15.68" transform="translate(685.71 309.16) rotate(180)" style="fill:#ebebeb"></rect><rect x="352.41" y="146.47" width="4.2" height="15.68" transform="translate(667.11 381.83) rotate(-167.47)" style="fill:#ebebeb"></rect><rect x="371.15" y="143.46" width="2.1" height="18.96" transform="translate(744.4 305.88) rotate(180)" style="fill:#ebebeb"></rect><rect x="346.16" y="143.46" width="2.1" height="18.96" transform="translate(694.43 305.88) rotate(180)" style="fill:#ebebeb"></rect><rect x="302.37" y="148.12" width="20.47" height="14.13" transform="translate(625.21 310.38) rotate(180)" style="fill:#ebebeb"></rect><rect x="314.22" y="191.34" width="53.48" height="190.67" style="fill:#f5f5f5"></rect><rect x="318.83" y="196.79" width="44.26" height="180.91" style="fill:#ebebeb"></rect><rect x="326.88" y="202.1" width="28.14" height="1.86" style="fill:#e0e0e0"></rect><rect x="326.88" y="210.16" width="28.14" height="1.86" style="fill:#e0e0e0"></rect><rect x="326.88" y="218.22" width="28.14" height="1.86" style="fill:#e0e0e0"></rect><rect x="326.88" y="226.28" width="28.14" height="1.86" style="fill:#e0e0e0"></rect><rect x="326.88" y="234.34" width="28.14" height="1.86" style="fill:#e0e0e0"></rect><rect x="326.88" y="242.4" width="28.14" height="1.86" style="fill:#e0e0e0"></rect><rect x="326.88" y="250.46" width="28.14" height="1.86" style="fill:#e0e0e0"></rect><rect x="326.88" y="316.01" width="28.14" height="1.86" style="fill:#e0e0e0"></rect><rect x="326.88" y="324.07" width="28.14" height="1.86" style="fill:#e0e0e0"></rect><rect x="326.88" y="332.13" width="28.14" height="1.86" style="fill:#e0e0e0"></rect><rect x="326.88" y="340.19" width="28.14" height="1.86" style="fill:#e0e0e0"></rect><rect x="326.88" y="348.25" width="28.14" height="1.86" style="fill:#e0e0e0"></rect><rect x="326.88" y="356.31" width="28.14" height="1.86" style="fill:#e0e0e0"></rect><rect x="326.88" y="364.37" width="28.14" height="1.86" style="fill:#e0e0e0"></rect><path d="M356.41,278.05a3.11,3.11,0,1,1-3.11-3.11A3.11,3.11,0,0,1,356.41,278.05Z" style="fill:#e0e0e0"></path><rect x="259.16" y="191.34" width="53.48" height="190.67" style="fill:#f5f5f5"></rect><rect x="263.77" y="196.79" width="44.26" height="180.91" style="fill:#ebebeb"></rect><rect x="271.83" y="202.1" width="28.14" height="1.86" style="fill:#e0e0e0"></rect><rect x="271.83" y="210.16" width="28.14" height="1.86" style="fill:#e0e0e0"></rect><rect x="271.83" y="218.22" width="28.14" height="1.86" style="fill:#e0e0e0"></rect><rect x="271.83" y="226.28" width="28.14" height="1.86" style="fill:#e0e0e0"></rect><rect x="271.83" y="234.34" width="28.14" height="1.86" style="fill:#e0e0e0"></rect><rect x="271.83" y="242.4" width="28.14" height="1.86" style="fill:#e0e0e0"></rect><rect x="271.83" y="250.46" width="28.14" height="1.86" style="fill:#e0e0e0"></rect><rect x="271.83" y="316.01" width="28.14" height="1.86" style="fill:#e0e0e0"></rect><rect x="271.83" y="324.07" width="28.14" height="1.86" style="fill:#e0e0e0"></rect><rect x="271.83" y="332.13" width="28.14" height="1.86" style="fill:#e0e0e0"></rect><rect x="271.83" y="340.19" width="28.14" height="1.86" style="fill:#e0e0e0"></rect><rect x="271.83" y="348.25" width="28.14" height="1.86" style="fill:#e0e0e0"></rect><rect x="271.83" y="356.31" width="28.14" height="1.86" style="fill:#e0e0e0"></rect><rect x="271.83" y="364.37" width="28.14" height="1.86" style="fill:#e0e0e0"></rect><path d="M301.36,278.05a3.12,3.12,0,1,1-3.11-3.11A3.11,3.11,0,0,1,301.36,278.05Z" style="fill:#e0e0e0"></path><rect x="369.27" y="191.34" width="53.48" height="190.67" style="fill:#f5f5f5"></rect><rect x="373.88" y="196.79" width="44.26" height="180.91" style="fill:#ebebeb"></rect><rect x="381.94" y="202.1" width="28.14" height="1.86" style="fill:#e0e0e0"></rect><rect x="381.94" y="210.16" width="28.14" height="1.86" style="fill:#e0e0e0"></rect><rect x="381.94" y="218.22" width="28.14" height="1.86" style="fill:#e0e0e0"></rect><rect x="381.94" y="226.28" width="28.14" height="1.86" style="fill:#e0e0e0"></rect><rect x="381.94" y="234.34" width="28.14" height="1.86" style="fill:#e0e0e0"></rect><rect x="381.94" y="242.4" width="28.14" height="1.86" style="fill:#e0e0e0"></rect><rect x="381.94" y="250.46" width="28.14" height="1.86" style="fill:#e0e0e0"></rect><rect x="381.94" y="316.01" width="28.14" height="1.86" style="fill:#e0e0e0"></rect><rect x="381.94" y="324.07" width="28.14" height="1.86" style="fill:#e0e0e0"></rect><rect x="381.94" y="332.13" width="28.14" height="1.86" style="fill:#e0e0e0"></rect><rect x="381.94" y="340.19" width="28.14" height="1.86" style="fill:#e0e0e0"></rect><rect x="381.94" y="348.25" width="28.14" height="1.86" style="fill:#e0e0e0"></rect><rect x="381.94" y="356.31" width="28.14" height="1.86" style="fill:#e0e0e0"></rect><rect x="381.94" y="364.37" width="28.14" height="1.86" style="fill:#e0e0e0"></rect><path d="M411.47,278.05a3.12,3.12,0,1,1-3.11-3.11A3.11,3.11,0,0,1,411.47,278.05Z" style="fill:#e0e0e0"></path></g><g id="freepik--Shadow--inject-2"><ellipse id="freepik--path--inject-2" cx="250" cy="416.24" rx="193.89" ry="11.32" style="fill:#f5f5f5"></ellipse></g><g id="freepik--Character--inject-2"><path d="M298.45,268.25s2.11,52.32-12.45,61.33h16.63s12.88-17.82,9.24-61.33Z" style="fill:#263238"></path><path d="M298.45,268.25s2.11,52.32-12.45,61.33h16.63s12.88-17.82,9.24-61.33Z" style="fill:#fff;isolation:isolate;opacity:0.2"></path><path d="M233.76,322.26h74.53a0,0,0,0,1,0,0V328a5.63,5.63,0,0,1-5.63,5.63H239.39a5.63,5.63,0,0,1-5.63-5.63v-5.69A0,0,0,0,1,233.76,322.26Z" transform="translate(542.05 655.85) rotate(180)" style="fill:#FFC100"></path><rect x="275.17" y="240.21" width="54.9" height="38.68" rx="16.43" style="fill:#FFC100"></rect><path d="M233.76,322.26h74.53a0,0,0,0,1,0,0V328a5.63,5.63,0,0,1-5.63,5.63H239.39a5.63,5.63,0,0,1-5.63-5.63v-5.69A0,0,0,0,1,233.76,322.26Z" transform="translate(542.05 655.85) rotate(180)" style="opacity:0.4"></path><rect x="275.17" y="240.21" width="54.9" height="38.68" rx="16.43" style="opacity:0.4"></rect><path d="M305.45,398.07l-27.92-2.74V356.09H266.47v39.23l-28,2.75a5.43,5.43,0,0,0-4.9,5.41v4.19h76.81v-4.19A5.43,5.43,0,0,0,305.45,398.07Z" style="fill:#263238"></path><path d="M305.45,398.07l-27.92-2.74V356.09H266.47v39.23l-28,2.75a5.43,5.43,0,0,0-4.9,5.41v4.19h76.81v-4.19A5.43,5.43,0,0,0,305.45,398.07Z" style="fill:#fff;isolation:isolate;opacity:0.30000000000000004"></path><path d="M243.72,412.87a7.23,7.23,0,1,1-7.23-7.23A7.23,7.23,0,0,1,243.72,412.87Z" style="fill:#FFC100"></path><path d="M300.17,412.87a7.23,7.23,0,1,0,7.23-7.23A7.24,7.24,0,0,0,300.17,412.87Z" style="fill:#FFC100"></path><path d="M264.56,329.58h14.87a0,0,0,0,1,0,0v30.29a4.66,4.66,0,0,1-4.66,4.66h-5.56a4.66,4.66,0,0,1-4.66-4.66V329.58A0,0,0,0,1,264.56,329.58Z" style="fill:#263238"></path><path d="M264.56,329.58h14.87a0,0,0,0,1,0,0v30.29a4.66,4.66,0,0,1-4.66,4.66h-5.56a4.66,4.66,0,0,1-4.66-4.66V329.58A0,0,0,0,1,264.56,329.58Z" style="fill:#fff;isolation:isolate;opacity:0.5"></path><rect x="230.65" y="327.93" width="80.74" height="5.66" rx="2.27" transform="translate(542.05 661.52) rotate(-180)" style="fill:#FFC100"></rect><rect x="230.65" y="327.93" width="80.74" height="5.66" rx="2.27" transform="translate(542.05 661.52) rotate(-180)" style="fill:#fff;isolation:isolate;opacity:0.6000000000000001"></rect><path d="M169.8,410.69h10a.73.73,0,0,1,.71.57l1.63,7.36a1.23,1.23,0,0,1-.95,1.45,1.09,1.09,0,0,1-.26,0c-3.26-.06-5.62-.26-9.71-.26-2.51,0-10.1.27-13.57.27s-3.93-3.43-2.51-3.75c6.38-1.39,11.18-3.32,13.22-5.15A2,2,0,0,1,169.8,410.69Z" style="fill:#FFC100"></path><path d="M195.85,410.42H205.9a.73.73,0,0,1,.7.57l1.63,7.37a1.22,1.22,0,0,1-.94,1.45l-.27,0c-3.25-.05-5.62-.25-9.7-.25-2.51,0-10.1.26-13.57.26s-3.93-3.43-2.51-3.74c6.38-1.39,11.18-3.32,13.22-5.15A2,2,0,0,1,195.85,410.42Z" style="fill:#FFC100"></path><path d="M163.79,411.34l19.59-.08,14-83.84s37.19,5.72,67.13-1.8a53.75,53.75,0,0,0,12-4.37c25.85-13.74,26.66-44.05,26.66-44.05l-64.57-.83L234,284.72s-43.31,9.4-58.18,18.7c-5.16,3.23-8.19,17.18-9.94,34C162.57,369.23,163.79,411.34,163.79,411.34Z" style="fill:#263238"></path><path d="M163.79,411.34l19.59-.08,14-83.84s37.19,5.72,67.13-1.8a105.5,105.5,0,0,0-14.58-33.05s-59,4.43-84.05,44.88C162.57,369.23,163.79,411.34,163.79,411.34Z" style="isolation:isolate;opacity:0.2"></path><polygon points="238.41 271.94 303.49 271.94 303.49 277.2 237.57 276.66 238.41 271.94"></polygon><rect x="280.24" y="269.58" width="2.32" height="9.34" style="fill:#263238"></rect><rect x="247.31" y="269.58" width="2.32" height="9.34" style="fill:#263238"></rect><rect x="256.03" y="271.02" width="12.04" height="5.89" style="fill:#fff"></rect><path d="M303.15,277.21s6.85,34.79-11.27,44-48.69,8.09-48.69,8.09L209.6,413.12l-17.76-1.86s11.65-97,26.39-108.58c4-3.12,47.8-12.42,47.8-12.42Z" style="fill:#263238"></path><path d="M256.84,213s-2,9.57-5.17,20.2c-3.06,10.36-7.17,21.72-11.45,26.19a16.48,16.48,0,0,1-1.37,1.27c-9.2,7.69-26.81,7.19-26.81,7.19l-4.23-9s15-4.79,19.24-8.77,10.18-40.45,25.56-47.91Z" style="fill:#FFC100"></path><path d="M251.67,233.19c-3.06,10.36-7.17,21.72-11.45,26.19a16.48,16.48,0,0,1-1.37,1.27c-4.53-18.48,7.56-37,7.56-37C248.87,225.39,250.59,228.88,251.67,233.19Z" style="opacity:0.2"></path><path d="M207.78,259.69l-11-2.39,2.47,11.87s9.28,1.93,10.68-3.72Z" style="fill:#ff8b7b"></path><path d="M190.52,261.66l.29,5a3.17,3.17,0,0,0,3.46,3l5-.47-2.47-11.87-4,1.13A3.17,3.17,0,0,0,190.52,261.66Z" style="fill:#ff8b7b"></path><path d="M239.46,272h63.22c1.59-11.14,1.42-12.41,1.68-21,.18-6.11.11-11.58-.11-16.45-.38-8.41-1.19-15-1.88-19.79-.78-5.41-5.49-9.84-11.61-11a134.69,134.69,0,0,0-33.45-2.55c-7.24.44-12.71,5.61-12.74,12,0,10.16,1.86,16,1.56,25.49C238.11,252.06,237.13,263.59,239.46,272Z" style="fill:#FFC100"></path><path d="M304.36,251c-7.26-6-9.25-19.61-9.25-19.61l9.14,3.16C304.47,239.37,304.54,244.84,304.36,251Z" style="opacity:0.2"></path><polygon points="205.8 258.6 208.76 269.06 213.4 268.33 209.43 257.39 205.8 258.6" style="fill:#FFC100"></polygon><polygon points="205.8 258.6 208.76 269.06 213.4 268.33 209.43 257.39 205.8 258.6" style="opacity:0.2"></polygon><path d="M263.24,213l3.16,6s-3.11,22.83.86,34.87l4.63,1,2.66-3.86a57.31,57.31,0,0,1-5.65-31.39l5.06-5.82-1.51-1.43-2.06,1.43-4.62-.5-.64-1.21Z" style="fill:#fff"></path><path d="M282.24,203a42.46,42.46,0,0,1-7.59,7.41c-2.12,1.53-4.43,2.69-6.56,2.68-6.29,0-5.89-11-5.89-11s1.88.43,4.2-4.24A50.48,50.48,0,0,0,270,186.34L282.69,192S278.42,198.41,282.24,203Z" style="fill:#ff8b7b"></path><path d="M282.24,203a42.46,42.46,0,0,1-7.59,7.41,14.67,14.67,0,0,1-8.25-12.56A50.48,50.48,0,0,0,270,186.34L282.69,192S278.42,198.41,282.24,203Z" style="opacity:0.2"></path><path d="M279.69,199c.31,2.27-2.17,10.43-11.6,14.17,3.68-.08,5.43,4.54,5.43,4.54s12.44-7.13,10.68-15.22A4.5,4.5,0,0,0,279.69,199Z" style="fill:#FFC100"></path><path d="M264.73,200c.31,2.22-2.13,7,3.36,13.09-3.68.15-5.77,3.88-5.77,3.88s-5.11-6.83-1.5-15A7.36,7.36,0,0,1,264.73,200Z" style="fill:#FFC100"></path><g style="opacity:0.2"><path d="M279.69,199c.31,2.27-2.17,10.43-11.6,14.17,3.68-.08,5.43,4.54,5.43,4.54s12.44-7.13,10.68-15.22A4.5,4.5,0,0,0,279.69,199Z"></path><path d="M264.73,200c.31,2.22-2.13,7,3.36,13.09-3.68.15-5.77,3.88-5.77,3.88s-5.11-6.83-1.5-15A7.36,7.36,0,0,1,264.73,200Z"></path></g><path d="M297.78,177.71s1.19,3.18.35,4.37-3.18.41-4.07-.78S295.91,175.61,297.78,177.71Z" style="fill:#263238"></path><path d="M269.61,177.21c-2.45,9.59-4.38,15.08-1.17,21.4,4.84,9.51,17.89,8.85,23.17.16,4.76-7.82,8-22.19-.07-28.83A13.64,13.64,0,0,0,269.61,177.21Z" style="fill:#ff8b7b"></path><path d="M281.44,183.28a5.4,5.4,0,0,0-3.71-1.81A10.61,10.61,0,0,0,281.44,183.28Z" style="opacity:0.2"></path><path d="M281,184.13a4.45,4.45,0,0,0-3.66-.74A8.77,8.77,0,0,0,281,184.13Z" style="opacity:0.2"></path><path d="M289.91,188s.63,4.93,2,7.59c-1.71.94-3.91-.23-3.91-.23Z" style="fill:#ff5652"></path><path d="M288.75,183.49a.49.49,0,0,1,0,.24.46.46,0,0,1-.57.34,4.76,4.76,0,0,1-3.33-2.78.48.48,0,0,1,.9-.31h0a3.78,3.78,0,0,0,2.65,2.18A.47.47,0,0,1,288.75,183.49Z" style="fill:#263238"></path><path d="M292.49,185.34a.49.49,0,0,1,.44-.08,3.72,3.72,0,0,0,3.37-.47.46.46,0,0,1,.66.07.46.46,0,0,1-.06.66,4.67,4.67,0,0,1-4.26.64.46.46,0,0,1-.3-.59A.51.51,0,0,1,292.49,185.34Z" style="fill:#263238"></path><path d="M283.72,183.9a3.3,3.3,0,0,1,2.49,2.44s-2.26-1.2-3.27-.71a1.63,1.63,0,0,1,1.89-.29A2.9,2.9,0,0,0,283.72,183.9Z" style="fill:#263238"></path><path d="M294.69,188.42a3.3,3.3,0,0,0-3.48.07s2.47.68,2.86,1.73a1.63,1.63,0,0,0-1.17-1.51A2.87,2.87,0,0,1,294.69,188.42Z" style="fill:#263238"></path><path d="M296.18,178.55a4.84,4.84,0,0,1-4.62-1.83,6.23,6.23,0,0,1-5.7-1.53s-3.14,1.44-4.89-1.46c0,0-1.75,5.55-5,4.11,0,0-.27,5.3-3.07,4.47l-2.43,6.13-5-5.36s-1.32-4.37,1.52-5.46c0,0-1.23-5.75,3-7.91,0,0,.83-7.17,6.61-5,0,0,4.44-5.53,8.52-.93,0,0,4.22-3.44,6.85,2,0,0,3.41-1.76,4.3,2.42,0,0,4.94,1.64,2,5.26,0,0,3.45,2,2.24,4.23S296.18,178.55,296.18,178.55Z" style="fill:#263238"></path><path d="M263.33,185.74a9.3,9.3,0,0,0,3.95,6c2.75,1.82,5.16-.38,5.26-3.5.1-2.81-1.22-7.14-4.4-7.71S262.78,182.74,263.33,185.74Z" style="fill:#ff8b7b"></path><path d="M306.24,210.11s25.67,10.59,27.8,19.22-2.32,23.31-29.11,11.65c-19.09-8.3-8.09-28.67-8.09-28.67Z" style="fill:#FFC100"></path><path d="M300.87,216.16s7.64,16.78,15.47,21.15c0,0-18.18-10-19.5-25Z" style="opacity:0.2"></path><path d="M304.56,209.18l-4.47-9.06-8.93,8.18s5,7.72,9.57,5.71Z" style="fill:#ff8b7b"></path><path d="M290.19,196.66l-2.65,3.39a3.5,3.5,0,0,0,.18,4.53l3.44,3.72,8.93-8.18-4.93-4A3.5,3.5,0,0,0,290.19,196.66Z" style="fill:#ff8b7b"></path><path d="M310.12,205.75l-.89,0c-.68,0-1.65,0-2.63,0a8.19,8.19,0,0,0-3.38.61c-.86.57-1,3.4-1.8,5.27a3.43,3.43,0,0,1-.24.51,1.71,1.71,0,0,1-1.54,1.08,1.76,1.76,0,0,1-.31,0,21.78,21.78,0,0,1-2.49-.85c-3.23-1.25-7.39-3-8.25-.58a26.7,26.7,0,0,1-2.58,5.39c-.14.23-.29.43-.43.63a4.82,4.82,0,0,1-.79.86,1.48,1.48,0,0,1-.67.42,12.3,12.3,0,0,0-1.41.53c-1.68.71-3.9,1.83-3.9,1.83a21.52,21.52,0,0,0,1.89-5.67c0-.2.08-.41.11-.61.09-.44.16-.9.21-1.37,0-.13,0-.26.05-.39s.11-1.09.28-2.67c.2-1.87.48-4.36.74-6.56l.06-.44.09-.77c.12-.93.23-1.78.33-2.48s.22-1.37.3-1.71a5,5,0,0,1,1.05-2,6.24,6.24,0,0,1,1.74-1.44,3.87,3.87,0,0,1,.56-.25h0a1.35,1.35,0,0,1,.36-.08,20.64,20.64,0,0,1,3.33.24,9.17,9.17,0,0,0,1.66,0,4.63,4.63,0,0,0,.56-.11l.4-.12.36-.12c1.28-.42,2.29-.88,3.2-.28h0a3.2,3.2,0,0,1,.81.88,2.2,2.2,0,0,0,.17.25,7.89,7.89,0,0,0,1.75,1.7c.37.3.78.57,1.18.84.12.09.24.16.37.24.47.31.94.59,1.38.86h0L303,200c.24.17.47.32.66.47.58.44,1.49,1.17,2.46,2l.52.43h0l.46.38Z" style="fill:#FFC100"></path><path d="M310.12,205.75l-.89,0c-.68,0-1.65,0-2.63,0a8.19,8.19,0,0,0-3.38.61c-.86.57-1,3.4-1.8,5.27a3.43,3.43,0,0,1-.24.51,1.71,1.71,0,0,1-1.54,1.08,1.76,1.76,0,0,1-.31,0,21.78,21.78,0,0,1-2.49-.85c-3.23-1.25-7.39-3-8.25-.58a26.7,26.7,0,0,1-2.58,5.39c-.14.23-.29.43-.43.63a4.82,4.82,0,0,1-.79.86,1.48,1.48,0,0,1-.67.42,12.3,12.3,0,0,0-1.41.53c-1.68.71-3.9,1.83-3.9,1.83a21.52,21.52,0,0,0,1.89-5.67c0-.2.08-.41.11-.61.09-.44.16-.9.21-1.37,0-.13,0-.26.05-.39s.11-1.09.28-2.67c.2-1.87.48-4.36.74-6.56l.06-.44.09-.77c.12-.93.23-1.78.33-2.48s.22-1.37.3-1.71a5,5,0,0,1,1.05-2,6.24,6.24,0,0,1,1.74-1.44,3.87,3.87,0,0,1,.56-.25h0a1.35,1.35,0,0,1,.36-.08,20.64,20.64,0,0,1,3.33.24,9.17,9.17,0,0,0,1.66,0,4.63,4.63,0,0,0,.56-.11l.4-.12.36-.12c1.28-.42,2.29-.88,3.2-.28h0a3.2,3.2,0,0,1,.81.88,2.2,2.2,0,0,0,.17.25,7.89,7.89,0,0,0,1.75,1.7c.37.3.78.57,1.18.84.12.09.24.16.37.24.47.31.94.59,1.38.86h0L303,200c.24.17.47.32.66.47.58.44,1.49,1.17,2.46,2l.52.43h0l.46.38Z" style="fill:#fff;opacity:0.4"></path><g style="opacity:0.30000000000000004"><path d="M299.64,213.2a1.76,1.76,0,0,1-.31,0,21.78,21.78,0,0,1-2.49-.85,19,19,0,0,0-2.51-3.71,5.61,5.61,0,0,1-1.23-1.67c-.09-.15-.16-.31-.24-.47s-.26-.58-.38-.9h0a22.37,22.37,0,0,1-.83-2.71c-.2-.85-.36-1.68-.46-2.42l-.06-.34q-.08-.6-.12-1.08v-.21a9,9,0,0,0-.34-1.82,10,10,0,0,0-.71-1.81,9.17,9.17,0,0,0,1.66,0,11.31,11.31,0,0,1,.71,1.92,10.28,10.28,0,0,1,.27,1.54q0,.25.06.54c0,.25.07.52.11.79l.06.35a26.57,26.57,0,0,0,.73,3,15.65,15.65,0,0,0,1.08,2.74,7.1,7.1,0,0,0,.53.83h0a1.85,1.85,0,0,0,.37.37l.14.13h0A33.23,33.23,0,0,1,299.64,213.2Z"></path></g><g style="opacity:0.30000000000000004"><path d="M309.23,205.72c-.68,0-1.65,0-2.63,0l-2.2-1.85-.08-.06-.39-.33q-.72-.59-1.26-1.05c-.53-.45-.93-.81-1.16-1.05s-.4-.46-.68-.82-.89-1.08-1.4-1.74l-.23-.3-.87-1.13L297,195.66l-.87-1.16a3.2,3.2,0,0,1,.81.88,2.2,2.2,0,0,0,.17.25,7.89,7.89,0,0,0,1.75,1.7c.37.3.78.57,1.18.84.12.09.24.16.37.24.47.31.94.59,1.38.86h0c.26.31.49.58.68.79a5.27,5.27,0,0,0,.36.39c.32.33,1.2,1,2.22,1.86l.5.41.31.25.44.35C307.37,204.18,308.36,205,309.23,205.72Z"></path></g><g style="opacity:0.30000000000000004"><path d="M285.12,202.56c.05,1.24.06,3.26,0,5.68h0c0,1.1,0,2.29-.07,3.53,0,.35,0,.71,0,1.07,0,.19,0,.37,0,.56-.06,1.73-.13,3.5-.23,5.2a1.48,1.48,0,0,1-.67.42,12.3,12.3,0,0,0-1.41.53c.14-1.62.25-3.36.36-5.08,0-.2,0-.38,0-.58s0-.68.05-1c.06-1.07.12-2.13.16-3.13.11-2.61.18-4.88.18-6.35,0-.13,0-.27,0-.39,0-.28,0-.53,0-.73s0-.29,0-.39a9.07,9.07,0,0,1,0-1.94c.09-1.07.28-2.24.47-3.24a6.24,6.24,0,0,1,1.74-1.44c-.18.89-.42,2.23-.57,3.51a12.16,12.16,0,0,0-.07,2.58s0,.08,0,.12.05.39.07.68C285.1,202.28,285.11,202.41,285.12,202.56Z"></path></g><g style="opacity:0.30000000000000004"><path d="M306.1,202.44l-1-.12a7.35,7.35,0,0,0-2.39.12,1.36,1.36,0,0,0-.69.4,8.08,8.08,0,0,1-4.43,3,2.47,2.47,0,0,1-.47.11,8.3,8.3,0,0,1-2.45.06,11.5,11.5,0,0,1-2.05-.42l-.1,0h0c-2.8-.81-2.87-.79-4.38,2.7a8,8,0,0,1-2.26,2.93c-.15.14-.31.26-.46.39l-.31.21a12.23,12.23,0,0,1-1.91,1.1,18.39,18.39,0,0,1-2.14.86c0-.13,0-.26.05-.39s.11-1.09.28-2.67a11.77,11.77,0,0,0,2-.93,6.7,6.7,0,0,0,1.82-1.5h0a2.93,2.93,0,0,0,.33-.48h0a2.24,2.24,0,0,0,.21-.36l.26-.56c1.69-3.42,3-4.4,5.71-4a15.08,15.08,0,0,1,1.76.39l.14,0a8.43,8.43,0,0,0,2,.31h0l.49,0a5.2,5.2,0,0,0,3.72-2.17,3.44,3.44,0,0,1,1-.81,5.58,5.58,0,0,1,1.65-.5c.16,0,.33,0,.5-.06.24.17.47.32.66.47C304.22,200.92,305.13,201.65,306.1,202.44Z" style="fill:#fff"></path></g><g style="opacity:0.30000000000000004"><path d="M298.86,197.33a3.35,3.35,0,0,0-.53.07,11.78,11.78,0,0,0-2.65.88c-.47.2-.94.4-1.39.55l-.4.12a4.77,4.77,0,0,1-1.24.18,2.69,2.69,0,0,1-.4,0c-.43,0-.85-.09-1.24-.1-2.06-.11-3.48.26-4.37,1.13a9.52,9.52,0,0,1-.87.72l-.41.29-.34.22c-.49.33-1,.63-1.55.92l-1.23.63c.12-.93.23-1.78.33-2.48l.88-.48a8.79,8.79,0,0,0,1.57-1.1.46.46,0,0,0,.07-.07,5.13,5.13,0,0,1,.53-.42c.14-.11.28-.2.42-.29a8.68,8.68,0,0,1,4.62-1.1,16.27,16.27,0,0,1,1.66.08l.4,0a1.39,1.39,0,0,0,.6-.09,2.07,2.07,0,0,0,.38-.12c.29-.1.62-.24,1-.38a17.55,17.55,0,0,1,2.34-.84l.11,0A7.89,7.89,0,0,0,298.86,197.33Z" style="fill:#fff"></path></g><g style="opacity:0.5"><path d="M301.42,211.61a3.43,3.43,0,0,1-.24.51c-.7-1.07-1.46-2.2-2.2-3.32l-.83-1.24-.3-.45h0l-.77-1.16c-.59-.9-1.09-1.68-1.5-2.37h0c-1-1.61-1.53-2.68-1.48-3.19a.74.74,0,0,0,0-.21c0-.1,0-.22,0-.35a7.13,7.13,0,0,0-.18-.87c-.14-.6-.34-1.28-.57-1.95s-.53-1.52-.75-2.1l.36-.12c.23.58.5,1.33.77,2.1s.43,1.34.59,2c.08.35.15.67.19.95,0,.13,0,.25,0,.36a1,1,0,0,1,0,.25,9.32,9.32,0,0,0,1.56,3.16c.44.7.94,1.47,1.48,2.28.27.42.56.85.86,1.28.09.16.18.29.28.44h0l.69,1C300.07,209.59,300.76,210.61,301.42,211.61Z" style="fill:#fff"></path></g><g style="opacity:0.5"><path d="M285.77,200.85a7,7,0,0,0,0,.93,3,3,0,0,0,.06.38.17.17,0,0,1,0,.07,23.79,23.79,0,0,1,.09,4.6c0,.23,0,.48,0,.73,0,1.11-.08,2.36-.09,3.62,0,.4,0,.8,0,1.2v.55c0,1.5.05,3,.18,4.19-.14.23-.29.43-.43.63a38.87,38.87,0,0,1-.22-4.54c0-.18,0-.36,0-.54,0-.36,0-.73,0-1.1,0-1.31.06-2.6.09-3.81h0a.76.76,0,0,0,0-.15,29.38,29.38,0,0,0,0-5.23,3.18,3.18,0,0,1-.06-.37,5.81,5.81,0,0,1,0-.86,22.84,22.84,0,0,1,.26-2.78c.18-1.29.42-2.55.6-3.34h0a1.35,1.35,0,0,1,.36-.08c-.17.7-.39,1.9-.58,3.15A27.34,27.34,0,0,0,285.77,200.85Z" style="fill:#fff"></path></g><g style="opacity:0.5"><path d="M300.41,198.41l-.19.08c-.25.11-.51.23-.79.34a14.77,14.77,0,0,1-4.68,1.29l-.24,0-.41,0-1.28.1-1.63.15a9.94,9.94,0,0,0-4.28,1.07,10.66,10.66,0,0,1-1.07.67l-.39.21-.33.19-1.62.84-1.41.72.06-.44,1.34-.67c.55-.29,1.1-.57,1.61-.85l.29-.16.39-.22c.38-.22.7-.41.91-.56.86-.63,2.38-.93,4.44-1.14l1.63-.16,1.31-.1.41,0,.25,0a14.3,14.3,0,0,0,4.47-1.23c.29-.11.56-.23.83-.35,0,0,0,0,0,0S300.28,198.33,300.41,198.41Z"></path></g><g style="opacity:0.5"><path d="M307.08,203.25c-.27,0-.52.05-.77.08a9.82,9.82,0,0,0-2,.49,10.29,10.29,0,0,0-4.21,3,3.91,3.91,0,0,1-.6.59,1.7,1.7,0,0,1-.82.17h-.54a24.51,24.51,0,0,1-2.46-.21h0c-.89-.12-1.8-.27-2.58-.41a16.17,16.17,0,0,1-2.18-.52c-.26-.12-1.41,1.88-1.91,2.77a13.57,13.57,0,0,1-1.93,2.93,9.62,9.62,0,0,1-1.25.82l-.47.28-.34.2-1.95,1.07c-.8.43-1.62.85-2.37,1.24,0-.2.08-.41.11-.61.74-.38,1.53-.79,2.3-1.21s1.35-.73,1.92-1.05l.33-.18.47-.29a7.66,7.66,0,0,0,1-.64,14.27,14.27,0,0,0,1.82-2.76c1.16-2.06,1.88-3.25,2.52-3a9.08,9.08,0,0,0,1.72.44c.69.13,1.49.27,2.3.37h0c1,.12,1.93.23,2.68.26h.56a1.86,1.86,0,0,0,.81-.1,4.77,4.77,0,0,0,.53-.52,10.72,10.72,0,0,1,4.18-3,10.94,10.94,0,0,1,1.94-.51c.25,0,.5-.08.75-.11h0Z"></path></g><polygon points="304.91 207.89 298.85 215.35 301.05 218.09 308.12 210.5 304.91 207.89" style="fill:#FFC100"></polygon><polygon points="304.91 207.89 298.85 215.35 301.05 218.09 308.12 210.5 304.91 207.89" style="opacity:0.2"></polygon><polygon points="249.02 226.19 258.95 227.71 257.95 239.92 253.24 242.17 248.52 238.31 249.02 226.19" style="opacity:0.2"></polygon><path d="M300.22,189.91s6.15-2.13,6.77-.49S300.22,189.91,300.22,189.91Z" style="fill:#FFC100"></path><path d="M299.38,192.3s6.45,1.11,6.2,2.15S299.38,192.3,299.38,192.3Z" style="fill:#FFC100"></path><path d="M300.22,189.91s6.15-2.13,6.77-.49S300.22,189.91,300.22,189.91Z" style="fill:#fff;opacity:0.7000000000000001"></path><path d="M299.38,192.3s6.45,1.11,6.2,2.15S299.38,192.3,299.38,192.3Z" style="fill:#fff;opacity:0.7000000000000001"></path></g><g id="freepik--Desk--inject-2"><path d="M148,268.33v2.29c0,1.08,1.26,1.52,2.32,1.52h83.59c1.07,0,2.36-.44,2.36-1.52v-2.29Z" style="fill:#263238"></path><path d="M148,268.33v2.29c0,1.08,1.26,1.52,2.32,1.52h55.13c1.07,0,2.34-.44,2.34-1.52v-2.29Z" style="fill:#fff;isolation:isolate;opacity:0.1"></path><path d="M134,223,144,268.15a3.38,3.38,0,0,0,3.23,2.56h54.36a2.19,2.19,0,0,0,2-2.83l-9.94-44.79a3.1,3.1,0,0,0-3.23-2.21H136.08C134.62,220.88,133.71,221.54,134,223Z" style="fill:#263238"></path><path d="M134,223,144,268.15a3.38,3.38,0,0,0,3.23,2.56h52.51a2.19,2.19,0,0,0,2.05-2.83l-10-44.79a3.09,3.09,0,0,0-3.23-2.21H136.08C134.62,220.88,133.71,221.54,134,223Z" style="fill:#fff;isolation:isolate;opacity:0.2"></path><path d="M160.83,246v0c0,3.86,4.14,7,7.18,7s4.84-3.14,4-7-3.89-6.88-6.86-7c.87,3.86-1,7-4,7A1,1,0,0,1,160.83,246Z" style="isolation:isolate;opacity:0.2"></path><polygon points="283.15 420.11 288.81 420.11 298.97 278.68 291.47 278.68 283.15 420.11" style="fill:#263238"></polygon><polygon points="283.15 420.11 288.81 420.11 298.47 285.7 298.97 278.9 291.47 278.9 291.06 285.7 283.15 420.11" style="fill:#fff;isolation:isolate;opacity:0.1"></polygon><polygon points="291.06 285.36 298.47 285.36 298.97 278.9 291.47 278.9 291.06 285.36" style="isolation:isolate;opacity:0.2"></polygon><polygon points="161.61 420.11 167.26 420.11 168.19 278.68 160.69 278.68 161.61 420.11" style="fill:#263238"></polygon><polygon points="160.68 278.9 160.83 301.72 161.61 420.11 167.26 420.11 168.04 301.72 168.19 278.9 160.68 278.9" style="fill:#fff;isolation:isolate;opacity:0.1"></polygon><polygon points="160.68 278.9 160.83 301.98 168.04 301.98 168.19 278.9 160.68 278.9" style="isolation:isolate;opacity:0.2"></polygon><polygon points="101.58 420.11 107.24 420.11 117.4 278.68 109.9 278.68 101.58 420.11" style="fill:#263238"></polygon><polygon points="101.58 420.11 107.24 420.11 116.9 285.7 117.4 278.9 109.9 278.9 109.49 285.7 101.58 420.11" style="fill:#fff;isolation:isolate;opacity:0.1"></polygon><polygon points="109.49 285.36 116.9 285.36 117.4 278.9 109.9 278.9 109.49 285.36" style="isolation:isolate;opacity:0.2"></polygon><polygon points="347.83 420.11 353.49 420.11 345.18 278.68 337.68 278.68 347.83 420.11" style="fill:#263238"></polygon><polygon points="337.68 278.9 338.17 285.7 347.84 420.11 353.49 420.11 345.58 285.7 345.18 278.9 337.68 278.9" style="fill:#fff;isolation:isolate;opacity:0.1"></polygon><polygon points="345.18 278.9 337.68 278.9 338.17 285.36 345.58 285.36 345.18 278.9" style="isolation:isolate;opacity:0.2"></polygon><path d="M106.4,275.13H348.67a2.45,2.45,0,0,1,2.45,2.45v4.64a0,0,0,0,1,0,0H104a0,0,0,0,1,0,0v-4.64A2.45,2.45,0,0,1,106.4,275.13Z" transform="translate(455.07 557.35) rotate(180)" style="fill:#FFC100"></path><path d="M106.4,275.13H348.67a2.45,2.45,0,0,1,2.45,2.45v4.64a0,0,0,0,1,0,0H104a0,0,0,0,1,0,0v-4.64A2.45,2.45,0,0,1,106.4,275.13Z" transform="translate(455.07 557.35) rotate(180)" style="fill:#fff;isolation:isolate;opacity:0.4"></path><rect x="103.95" y="275.13" width="247.17" height="3.54" transform="translate(455.07 553.81) rotate(180)" style="isolation:isolate;opacity:0.2"></rect><path d="M100.45,276.06H354.63a2,2,0,0,0,2-2h0a2,2,0,0,0-2-2H100.45a2,2,0,0,0-2,2h0A2,2,0,0,0,100.45,276.06Z" style="fill:#FFC100"></path><path d="M100.45,276.06H354.63a2,2,0,0,0,2-2h0a2,2,0,0,0-2-2H100.45a2,2,0,0,0-2,2h0A2,2,0,0,0,100.45,276.06Z" style="fill:#fff;isolation:isolate;opacity:0.4"></path></g><g id="freepik--Sheets--inject-2"><polygon points="280.54 272.52 280.54 258.2 333.02 258.2 333.02 272.83 280.54 272.52" style="fill:#FFC100"></polygon><polygon points="280.54 272.52 280.54 258.2 333.02 258.2 333.02 272.83 280.54 272.52" style="fill:#fff;opacity:0.7000000000000001"></polygon><rect x="307.12" y="258.2" width="25.89" height="14.62" style="opacity:0.1"></rect><polygon points="280.54 260.26 278.22 260.97 303.57 260.97 280.54 260.26" style="fill:#FFC100"></polygon><polygon points="280.54 265.52 307.12 266.19 329.61 266.19 307.62 267.41 280.54 265.52" style="fill:#FFC100"></polygon><polygon points="303.57 269.94 280.54 269.94 278.22 270.63 303.57 269.94" style="fill:#FFC100"></polygon><polygon points="309.53 260.61 333.02 260.37 334.29 260.97 309.53 260.61" style="fill:#FFC100"></polygon><polygon points="313.62 269.26 333.02 269.26 334.29 270.63 313.62 269.26" style="fill:#FFC100"></polygon><polygon points="280.54 260.26 278.22 260.97 303.57 260.97 280.54 260.26" style="fill:#fff;opacity:0.5"></polygon><polygon points="280.54 265.52 307.12 266.19 329.61 266.19 307.62 267.41 280.54 265.52" style="fill:#fff;opacity:0.7000000000000001"></polygon><polygon points="303.57 269.94 280.54 269.94 278.22 270.63 303.57 269.94" style="fill:#fff;opacity:0.5"></polygon><polygon points="309.53 260.61 333.02 260.37 334.29 260.97 309.53 260.61" style="fill:#fff;opacity:0.7000000000000001"></polygon><polyline points="334.29 270.63 313.62 269.26 333.02 269.26" style="fill:#fff;opacity:0.7000000000000001"></polyline><path d="M282.3,255.68c10.13,3.57,25.31,2.52,25.31,2.52H333s-15.32-.33-16.85-3.32Z" style="fill:#FFC100"></path><path d="M282.3,255.68c10.13,3.57,25.31,2.52,25.31,2.52H333s-15.32-.33-16.85-3.32Z" style="fill:#fff;opacity:0.5"></path><path d="M289.23,250.05s12.64,5,24.48,6.56l40.35-3.69s-21.61-1.37-26.9-6Z" style="fill:#FFC100"></path><path d="M289.23,250.05s12.64,5,24.48,6.56l40.35-3.69s-21.61-1.37-26.9-6Z" style="fill:#fff;opacity:0.7000000000000001"></path><path d="M316.86,233.5s.07,10.8,8.92,14.71,36.1,3.57,36.1,3.57-22-2.53-23.8-13.8Z" style="fill:#FFC100"></path><path d="M316.86,233.5s.07,10.8,8.92,14.71,36.1,3.57,36.1,3.57-22-2.53-23.8-13.8Z" style="fill:#fff;opacity:0.5"></path><path d="M345.56,227.17a34.28,34.28,0,0,0,6.66,16.59s7.13,3.3,13.11,3.19,15.52,8.85,15.52,8.85l-3.47-19.2s-8.72-3-14.18-2.18S348,230.74,345.56,227.17Z" style="fill:#FFC100"></path><path d="M345.56,227.17a34.28,34.28,0,0,0,6.66,16.59s7.13,3.3,13.11,3.19,15.52,8.85,15.52,8.85l-3.47-19.2s-8.72-3-14.18-2.18S348,230.74,345.56,227.17Z" style="fill:#fff;opacity:0.7000000000000001"></path></g><g id="freepik--trash-bin--inject-2"><path d="M381.69,395a3,3,0,0,0-2.42-4.33,6.46,6.46,0,0,0-2-7.06,1.5,1.5,0,0,0-.88-.39,1.7,1.7,0,0,0-1,.42l-5.65,4.06a3.49,3.49,0,0,0-1.12,1.11c-1.15,2.23,3,5.1,1.3,6.95-.49.53-1.28.64-1.9,1-1.34.84-1.5,2.68-2.13,4.14s-2.81,2.59-3.65,1.24c.62-1.4-1.25-2.6-2.76-2.78s-3.1-.26-3.94-1.68c-2.15,1.88-7-3.37-6.86-5.48-1.77.13-3,1.79-3.36,3.44a24.46,24.46,0,0,0-.19,5.28c-.05,3.42-1.15,6.78-1.09,10.2,0,2.67,1.07,5.63,3.51,6.7a9.15,9.15,0,0,0,3.79.51l27.79-.18a4.2,4.2,0,0,0,2-.32c1.25-.66,1.51-2.3,1.63-3.71q.75-9.06,1.49-18.12Z" style="fill:#FFC100"></path><path d="M381.69,395a3,3,0,0,0-2.42-4.33,6.46,6.46,0,0,0-2-7.06,1.5,1.5,0,0,0-.88-.39,1.7,1.7,0,0,0-1,.42l-5.65,4.06a3.49,3.49,0,0,0-1.12,1.11c-1.15,2.23,3,5.1,1.3,6.95-.49.53-1.28.64-1.9,1-1.34.84-1.5,2.68-2.13,4.14s-2.81,2.59-3.65,1.24c.62-1.4-1.25-2.6-2.76-2.78s-3.1-.26-3.94-1.68c-2.15,1.88-7-3.37-6.86-5.48-1.77.13-3,1.79-3.36,3.44a24.46,24.46,0,0,0-.19,5.28c-.05,3.42-1.15,6.78-1.09,10.2,0,2.67,1.07,5.63,3.51,6.7a9.15,9.15,0,0,0,3.79.51l27.79-.18a4.2,4.2,0,0,0,2-.32c1.25-.66,1.51-2.3,1.63-3.71q.75-9.06,1.49-18.12Z" style="fill:#fff;isolation:isolate;opacity:0.30000000000000004"></path><path d="M383.31,365.61H340.19l.35,4.36.26,3.11.65,8.09.38,4.66.5,6.19.21,2.65.07.79.25,3.12.35,4.28.21,2.65.22,2.7.26,3.12.19,2.36.21,2.65.09,1.16H384l.09-1.16.21-2.64.19-2.38.26-3.12.22-2.69.21-2.65.35-4.29.25-3.11.06-.79L386,392l.51-6.19.38-4.65.65-8.1.25-3.11.35-4.36Zm2.59,2.86h0l-.83-.83h.9Zm-.21,2.64-.08,1.06L381.75,376l-4.43-4.43,4-4h.94Zm-1.11,13.8-2.83,2.83-4.43-4.43,4.43-4.42,3.06,3.06Zm-41-3h0l3.06-3.06,4.43,4.42-4.43,4.43-2.82-2.83Zm36.78-4.49-4.43,4.42-4.42-4.42,4.42-4.43Zm-7-9.82h5.07l-2.54,2.53Zm1.09,15.67L370,387.74l-4.43-4.43,4.43-4.42Zm-14.7,5.86,4.43-4.42,4.42,4.42-4.42,4.43Zm3,5.86-4.43,4.42L353.9,395l4.42-4.43Zm7.3-4.42,4.41,4.43L370,399.45,365.61,395Zm-5.86-8.73-4.43-4.42,4.43-4.43,4.42,4.43Zm-1.44,1.43-4.42,4.43-4.42-4.43,4.42-4.42Zm-10.28-1.43L348,377.46l4.42-4.43,4.42,4.43Zm0,2.87,4.42,4.42-4.42,4.43L348,389.17Zm4.42,16.14-4.42,4.42L348,400.89l4.42-4.43Zm1.43,1.43,4.43,4.43-4.42,4.43-4.42-4.43Zm1.44-1.43,4.43-4.43,4.42,4.43-4.42,4.42ZM370,402.32l4.41,4.43L370,411.18l-4.43-4.43Zm5.85,5.86,4.43,4.42-2.87,2.87h-3.12l-2.86-2.87Zm-4.42-7.29,4.42-4.43,4.43,4.43-4.43,4.42Zm0-11.72,4.42-4.42,4.43,4.42-4.43,4.43Zm3-17.57L370,376l-4.43-4.43,4-4h.93Zm-10.27-1.43-2.53-2.53h5.05Zm-1.44,1.43L358.32,376l-4.42-4.43,4-4h.93Zm-7.75-4-2.53,2.53-2.53-2.53Zm-7.92,0,4,4L346.6,376l-3.85-3.86-.08-1.06,3.46-3.47Zm-3.79,0-.82.82h0l-.07-.82Zm-.28,7.65,2.17,2.17-1.84,1.84Zm1.21,14.84L344,388h0l1.13,1.14-1,1Zm.21,2.67,2.18-2.19L351,395l-4.43,4.41-1.78-1.78Zm.66,8.18v-.19l.1.1-.09.09Zm.77,9.44-.56-6.79,1.31-1.31,4.43,4.43-4.43,4.42-.75-.75Zm.41,5.05-.09-1,.43-.43,1.44,1.44ZM348,412.6l4.42-4.42,4.42,4.42L354,415.47H350.9Zm8.85,2.87,1.43-1.44,1.44,1.44Zm5.73,0-2.87-2.87,4.43-4.42,4.42,4.42-2.86,2.87Zm6,0L370,414l1.44,1.44Zm13.49,0h-1.78l1.44-1.44.42.43Zm.42-5.05-.76.75-4.43-4.42,4.43-4.43,1.31,1.31Zm.78-9.64,0,.2-.09-.09.11-.11Zm.25-3.11-1.79,1.78L377.32,395l4.43-4.43,2.19,2.19Zm.61-7.53-1-1,1.14-1.14Zm1.21-14.86-.33,4-1.85-1.85,2.18-2.18Z" style="fill:#FFC100"></path><g style="isolation:isolate;opacity:0.6000000000000001"><path d="M383.31,365.61H340.19l.35,4.36.26,3.11.65,8.09.38,4.66.5,6.19.21,2.65.07.79.25,3.12.35,4.28.21,2.65.22,2.7.26,3.12.19,2.36.21,2.65.09,1.16H384l.09-1.16.21-2.64.19-2.38.26-3.12.22-2.69.21-2.65.35-4.29.25-3.11.06-.79L386,392l.51-6.19.38-4.65.65-8.1.25-3.11.35-4.36Zm2.59,2.86h0l-.83-.83h.9Zm-.21,2.64-.08,1.06L381.75,376l-4.43-4.43,4-4h.94Zm-1.11,13.8-2.83,2.83-4.43-4.43,4.43-4.42,3.06,3.06Zm-41-3h0l3.06-3.06,4.43,4.42-4.43,4.43-2.82-2.83Zm36.78-4.49-4.43,4.42-4.42-4.42,4.42-4.43Zm-7-9.82h5.07l-2.54,2.53Zm1.09,15.67L370,387.74l-4.43-4.43,4.43-4.42Zm-14.7,5.86,4.43-4.42,4.42,4.42-4.42,4.43Zm3,5.86-4.43,4.42L353.9,395l4.42-4.43Zm7.3-4.42,4.41,4.43L370,399.45,365.61,395Zm-5.86-8.73-4.43-4.42,4.43-4.43,4.42,4.43Zm-1.44,1.43-4.42,4.43-4.42-4.43,4.42-4.42Zm-10.28-1.43L348,377.46l4.42-4.43,4.42,4.43Zm0,2.87,4.42,4.42-4.42,4.43L348,389.17Zm4.42,16.14-4.42,4.42L348,400.89l4.42-4.43Zm1.43,1.43,4.43,4.43-4.42,4.43-4.42-4.43Zm1.44-1.43,4.43-4.43,4.42,4.43-4.42,4.42ZM370,402.32l4.41,4.43L370,411.18l-4.43-4.43Zm5.85,5.86,4.43,4.42-2.87,2.87h-3.12l-2.86-2.87Zm-4.42-7.29,4.42-4.43,4.43,4.43-4.43,4.42Zm0-11.72,4.42-4.42,4.43,4.42-4.43,4.43Zm3-17.57L370,376l-4.43-4.43,4-4h.93Zm-10.27-1.43-2.53-2.53h5.05Zm-1.44,1.43L358.32,376l-4.42-4.43,4-4h.93Zm-7.75-4-2.53,2.53-2.53-2.53Zm-7.92,0,4,4L346.6,376l-3.85-3.86-.08-1.06,3.46-3.47Zm-3.79,0-.82.82h0l-.07-.82Zm-.28,7.65,2.17,2.17-1.84,1.84Zm1.21,14.84L344,388h0l1.13,1.14-1,1Zm.21,2.67,2.18-2.19L351,395l-4.43,4.41-1.78-1.78Zm.66,8.18v-.19l.1.1-.09.09Zm.77,9.44-.56-6.79,1.31-1.31,4.43,4.43-4.43,4.42-.75-.75Zm.41,5.05-.09-1,.43-.43,1.44,1.44ZM348,412.6l4.42-4.42,4.42,4.42L354,415.47H350.9Zm8.85,2.87,1.43-1.44,1.44,1.44Zm5.73,0-2.87-2.87,4.43-4.42,4.42,4.42-2.86,2.87Zm6,0L370,414l1.44,1.44Zm13.49,0h-1.78l1.44-1.44.42.43Zm.42-5.05-.76.75-4.43-4.42,4.43-4.43,1.31,1.31Zm.78-9.64,0,.2-.09-.09.11-.11Zm.25-3.11-1.79,1.78L377.32,395l4.43-4.43,2.19,2.19Zm.61-7.53-1-1,1.14-1.14Zm1.21-14.86-.33,4-1.85-1.85,2.18-2.18Z" style="fill:#fff"></path></g><rect x="337.43" y="363.8" width="53.5" height="5.64" rx="2.06" transform="translate(728.35 733.25) rotate(180)" style="fill:#FFC100"></rect><rect x="341.28" y="414.47" width="45.78" height="5.64" rx="2.06" style="fill:#FFC100"></rect></g></svg>